<?xml version="1.0" standalone="no"?>
<!DOCTYPE svg PUBLIC "-//W3C//DTD SVG 20010904//EN"
 "http://www.w3.org/TR/2001/REC-SVG-20010904/DTD/svg10.dtd">
<svg version="1.0" xmlns="http://www.w3.org/2000/svg"
 width="600.000000pt" height="400.000000pt" viewBox="0 0 600.000000 400.000000"
 preserveAspectRatio="xMidYMid meet">

<g transform="translate(0.000000,400.000000) scale(0.100000,-0.100000)"
fill="#000000" stroke="none">
<path d="M3950 3988 c-629 -78 -1230 -290 -1537 -542 -168 -138 -286 -315
-333 -500 -23 -89 -27 -274 -9 -406 6 -41 12 -100 14 -130 2 -30 8 -77 14
-105 10 -53 8 -65 -13 -65 -15 0 -23 33 -33 132 -3 38 -10 71 -14 74 -5 3 -9
16 -9 30 0 17 -5 24 -20 24 -17 0 -20 7 -20 50 0 35 4 49 13 48 9 -2 12 38 13
174 0 97 -2 175 -6 173 -8 -5 -27 -88 -41 -185 -15 -106 -12 -424 6 -544 8
-55 15 -112 15 -127 0 -25 2 -27 27 -20 21 6 27 14 26 29 -2 14 8 29 28 43 25
18 35 20 55 10 14 -6 27 -18 30 -26 4 -10 19 -15 43 -15 l38 0 -14 58 c-66
285 -75 353 -71 532 4 142 7 162 34 241 17 48 52 118 78 157 132 199 398 388
685 486 57 20 109 40 115 44 38 30 275 88 391 96 44 3 133 19 197 35 65 17
161 35 215 40 214 23 332 33 428 37 55 3 136 9 180 14 136 17 538 25 1043 22
l482 -3 0 65 0 66 -987 -1 c-544 -1 -1022 -6 -1063 -11z m-1963 -1360 c-3 -8
-6 -5 -6 6 -1 11 2 17 5 13 3 -3 4 -12 1 -19z m42 -245 c6 -27 13 -70 15 -98
2 -27 5 -54 6 -60 5 -20 0 -45 -9 -45 -4 0 -11 15 -14 33 -3 17 -13 72 -22
120 -15 83 -14 114 5 102 4 -3 13 -26 19 -52z m77 -164 c3 -6 1 -16 -5 -22 -9
-9 -14 -8 -21 3 -5 8 -10 18 -10 23 0 11 28 8 36 -4z"/>
<path d="M1624 3217 c-40 -23 -95 -63 -124 -88 l-52 -46 22 -43 c15 -30 20
-54 17 -79 -6 -46 -30 -111 -39 -111 -5 0 -8 -4 -8 -9 0 -6 12 -3 28 5 15 7
32 14 37 14 21 0 130 101 154 141 18 31 24 55 23 93 -1 33 6 66 19 94 20 39
20 73 2 71 -4 0 -40 -19 -79 -42z"/>
<path d="M1135 2712 c-17 -20 -43 -57 -57 -82 -14 -25 -66 -84 -115 -131 -89
-86 -124 -105 -171 -92 -14 3 -33 -6 -64 -34 -24 -21 -68 -57 -98 -79 -30 -23
-82 -72 -115 -109 -81 -92 -190 -201 -220 -221 -14 -9 -36 -38 -49 -63 l-23
-47 28 -17 c57 -32 29 -105 -35 -93 -44 8 -72 -15 -53 -44 6 -11 15 -20 19
-20 5 0 8 -7 8 -15 0 -8 -4 -15 -10 -15 -5 0 -10 5 -10 10 0 6 -12 10 -26 10
-21 0 -25 -4 -22 -22 2 -17 11 -24 31 -26 15 -2 27 1 27 7 0 6 13 8 30 6 17
-3 44 -7 60 -10 25 -4 30 -1 30 16 0 12 -8 23 -20 26 -32 8 -26 49 7 56 34 6
43 1 43 -24 0 -20 28 -26 46 -10 5 6 36 23 69 40 46 23 102 71 245 213 160
158 190 192 218 251 35 75 37 86 20 132 -9 26 -8 36 3 52 31 45 128 152 201
223 78 76 104 124 77 141 -26 16 -44 9 -74 -29z m-810 -792 c5 -17 -9 -60 -20
-60 -20 0 -32 14 -27 33 11 46 36 61 47 27z"/>
<path d="M5785 2585 c-71 -13 -193 -35 -270 -50 -224 -42 -250 -46 -253 -35
-5 14 -22 12 -56 -5 -16 -9 -106 -29 -200 -45 -94 -17 -187 -35 -206 -40 l-35
-10 40 5 c22 2 121 17 220 34 257 43 342 52 495 54 138 1 257 -16 229 -34 -8
-5 -9 -9 -4 -9 6 0 12 -12 13 -27 1 -15 7 -30 13 -34 14 -8 10 -16 -37 -68
-24 -26 -58 -48 -103 -66 -36 -15 -73 -31 -81 -36 -41 -24 -127 -61 -154 -66
-17 -3 -33 -9 -36 -13 -9 -14 -150 -51 -163 -44 -6 4 -9 4 -5 -1 4 -4 -3 -16
-15 -25 -34 -28 -16 -32 61 -15 40 9 76 14 81 11 5 -4 12 -2 16 4 8 13 45 13
45 0 0 -5 -17 -14 -37 -19 -183 -47 -373 -94 -393 -96 -44 -4 -45 -5 -23 -18
12 -7 22 -16 23 -22 1 -5 6 -15 11 -21 23 -28 -4 -43 -134 -73 -73 -17 -138
-31 -145 -31 -7 0 -23 -7 -35 -14 -23 -16 -379 -98 -406 -95 -9 1 -34 -3 -56
-9 -22 -6 -110 -27 -195 -46 -85 -19 -276 -63 -425 -96 -148 -34 -339 -77
-424 -96 -209 -47 -457 -93 -526 -98 -16 -1 -37 -5 -45 -8 -14 -6 -61 -16
-120 -25 -14 -2 -41 -3 -60 -3 -27 0 -32 -2 -20 -10 11 -8 9 -9 -11 -5 -15 4
-46 1 -70 -5 -24 -7 -44 -12 -44 -12 0 1 -221 -49 -255 -58 -143 -36 -211 -48
-293 -50 -10 0 -16 -4 -13 -8 3 -4 -7 -8 -22 -8 -15 -1 -40 -1 -56 -2 -28 -2
-29 -3 -11 -16 18 -13 18 -14 -1 -24 -23 -12 -126 -32 -166 -32 -31 0 -40 26
-10 33 24 6 -23 1 -253 -29 -110 -14 -203 -30 -206 -36 -5 -7 -39 -9 -100 -5
-92 6 -93 6 -54 -9 86 -32 314 -27 530 11 44 8 152 26 240 40 198 31 363 61
452 80 38 8 187 39 333 69 146 30 303 64 350 74 47 11 139 32 205 47 133 30
242 56 770 180 495 117 522 122 546 107 24 -15 29 -15 29 2 0 18 10 21 165 61
181 46 219 51 250 31 27 -18 100 -22 110 -6 4 6 -12 10 -39 10 -53 0 -66 25
-18 36 15 3 63 14 106 25 95 23 136 24 136 5 0 -8 8 -23 18 -34 15 -17 24 -19
72 -12 102 14 387 88 516 134 39 14 88 28 108 30 20 3 44 9 53 15 10 5 26 5
39 0 17 -6 22 -5 18 5 -4 9 20 21 78 39 46 14 92 27 103 29 19 3 20 12 23 122
l3 119 -33 -8 c-18 -5 -50 -9 -70 -9 -24 0 -38 -5 -38 -13 0 -20 -27 -15 -33
6 -3 11 -4 41 -3 67 2 54 24 78 60 64 13 -5 29 -4 37 1 8 5 29 9 47 9 l32 0 0
115 0 115 -42 1 c-40 1 -41 2 -13 9 l30 8 -30 0 c-16 0 -88 -10 -160 -23z
m-47 -373 c9 -25 8 -34 -1 -37 -104 -38 -117 -41 -117 -24 0 16 93 110 100
102 4 -5 12 -23 18 -41z m-322 -186 c15 -12 17 -18 8 -33 -12 -20 -110 -51
-165 -52 -32 -1 -206 -34 -236 -45 -19 -7 -39 22 -25 36 9 9 319 93 393 107 3
1 14 -5 25 -13z"/>
<path d="M5320 2469 c-30 -4 -84 -10 -120 -14 -97 -8 -143 -24 -55 -18 65 4
69 3 51 -11 -20 -16 -24 -17 -90 -21 -25 -1 -42 -8 -49 -21 -14 -24 -59 -65
-65 -59 -3 3 4 15 14 28 31 34 25 61 -12 65 -17 2 -38 -3 -45 -10 -8 -7 -39
-14 -69 -15 -30 -1 -75 -8 -99 -14 -42 -12 -43 -12 -20 -25 18 -10 19 -13 7
-14 -11 0 -15 -6 -11 -20 4 -16 0 -20 -17 -20 -16 0 -20 4 -16 15 7 19 -8 19
-37 1 -22 -15 -158 -43 -372 -76 -66 -11 -136 -24 -155 -30 -19 -5 -168 -33
-330 -61 -595 -103 -697 -120 -780 -134 -206 -35 -496 -100 -510 -113 -11 -11
-11 -17 -3 -19 7 -3 9 -11 6 -19 -8 -22 -35 -27 342 70 55 15 108 31 117 36
15 9 216 46 668 125 80 14 195 34 255 45 61 11 133 23 160 26 28 3 136 22 240
41 345 63 399 72 520 87 146 19 183 12 215 -39 12 -19 25 -35 28 -35 17 0 142
29 151 35 6 3 11 17 11 31 0 14 7 27 15 30 18 7 19 33 3 85 -6 22 -8 42 -4 47
11 10 36 -28 36 -55 0 -25 14 -30 29 -10 52 64 75 86 94 90 39 8 -46 5 -103
-4z"/>
<path d="M5467 2473 c-13 -12 -7 -44 9 -50 10 -4 26 6 44 26 l29 31 -38 0
c-21 0 -41 -3 -44 -7z"/>
<path d="M5670 2455 c7 -8 16 -15 20 -15 4 0 10 7 14 15 4 11 -2 15 -21 15
-21 0 -24 -2 -13 -15z"/>
<path d="M2120 2110 c-13 -8 -13 -10 2 -10 9 0 20 5 23 10 8 13 -5 13 -25 0z"/>
<path d="M2175 2081 c-84 -11 -223 -55 -296 -95 -170 -93 -232 -205 -156 -281
45 -45 102 -60 227 -60 209 1 425 96 521 228 50 68 36 147 -31 182 -43 22 -46
18 -11 -14 22 -20 31 -37 30 -58 -1 -23 -2 -24 -6 -6 -14 75 -138 121 -278
104z m178 -56 c52 -25 73 -66 58 -117 -7 -21 -21 -47 -33 -58 -12 -11 -18 -20
-13 -20 6 0 -13 -15 -41 -34 -136 -91 -328 -135 -473 -107 -48 10 -86 34 -109
71 -14 22 -11 21 19 -6 34 -32 70 -54 86 -54 4 0 -6 9 -23 20 -18 12 -38 35
-45 52 -11 27 -10 35 11 75 41 77 171 158 302 188 83 19 211 14 261 -10z"/>
<path d="M2365 1975 c0 -13 4 -21 9 -18 4 3 12 -1 17 -8 7 -11 9 -11 9 2 0 9
-8 23 -17 32 -17 14 -18 14 -18 -8z"/>
<path d="M1806 1845 c-23 -34 -20 -60 10 -92 14 -15 22 -21 18 -14 -4 8 -9 24
-10 35 -1 12 -5 32 -9 46 -5 20 -4 22 5 10 9 -12 10 -11 5 9 -5 17 -4 22 5 16
9 -5 11 -4 6 3 -10 16 -11 16 -30 -13z"/>
<path d="M2120 1764 c-26 -11 -31 -17 -21 -23 15 -10 71 6 71 19 0 17 -16 18
-50 4z"/>
<path d="M2521 1944 c0 -11 3 -14 6 -6 3 7 2 16 -1 19 -3 4 -6 -2 -5 -13z"/>
<path d="M2510 1905 c0 -8 -21 -40 -47 -72 -26 -33 -34 -47 -18 -33 31 28 85
99 85 112 0 4 -4 8 -10 8 -5 0 -10 -7 -10 -15z"/>
<path d="M4730 1875 c-8 -9 -8 -15 -2 -15 18 0 42 12 42 21 0 14 -26 10 -40
-6z"/>
<path d="M2458 1725 c-4 -4 -4 -13 -1 -21 3 -8 0 -14 -6 -14 -6 0 -11 -11 -11
-24 0 -13 -7 -29 -14 -36 -8 -6 -20 -28 -27 -48 -6 -20 -19 -43 -28 -50 -9 -7
-15 -15 -13 -17 9 -17 -1 -45 -19 -50 -17 -6 -18 -9 -7 -23 11 -13 11 -15 -2
-10 -8 3 -24 2 -35 -3 -17 -6 -17 -8 -2 -8 9 -1 17 -6 17 -11 0 -6 10 -4 23 4
12 7 34 16 49 20 15 3 43 20 62 36 18 17 38 30 42 30 13 -1 -73 -75 -123 -107
-24 -15 -43 -31 -43 -35 0 -4 16 -8 35 -8 19 0 35 4 35 8 0 5 15 7 33 5 26 -4
29 -2 17 7 -12 9 -10 11 13 7 15 -2 27 0 27 4 0 5 -5 9 -11 9 -6 0 3 13 20 29
17 16 27 31 23 33 -5 1 -4 38 1 80 9 68 8 80 -7 96 -9 11 -22 38 -29 61 -6 24
-15 40 -19 36z"/>
<path d="M1616 1710 c-16 -5 -81 -11 -145 -14 -66 -3 -149 -14 -191 -25 -41
-10 -94 -22 -117 -26 -24 -4 -46 -12 -49 -17 -4 -7 -2 -8 4 -4 7 4 12 2 12 -3
0 -6 -14 -11 -30 -11 -17 0 -47 -9 -67 -20 -21 -11 -56 -20 -78 -20 -51 0
-115 -11 -114 -19 0 -3 14 -17 30 -30 l30 -24 77 23 c42 12 127 37 187 56 119
37 289 74 428 94 73 11 87 16 87 32 0 20 -17 22 -64 8z"/>
<path d="M1710 1676 c14 -16 39 -35 55 -43 30 -14 30 -14 3 -8 -35 7 -35 2 -3
-19 18 -12 30 -14 43 -7 25 14 22 20 -28 42 -25 11 -56 30 -70 42 l-25 22 25
-29z"/>
<path d="M2365 1672 c-22 -15 -53 -33 -69 -40 -16 -7 -26 -15 -24 -17 7 -7 65
23 112 57 50 36 34 36 -19 0z"/>
<path d="M2831 1659 c16 -31 6 -118 -19 -169 -12 -24 -20 -46 -18 -48 3 -2 26
2 53 10 41 12 49 18 53 43 7 37 -13 109 -43 152 -25 37 -44 45 -26 12z"/>
<path d="M2033 1553 c9 -2 25 -2 35 0 9 3 1 5 -18 5 -19 0 -27 -2 -17 -5z"/>
<path d="M1875 1520 c3 -14 9 -43 12 -65 3 -25 15 -48 30 -62 38 -33 118 -53
178 -43 28 4 58 6 69 4 10 -2 35 5 55 16 l36 19 -38 1 c-23 0 -36 4 -32 10 4
6 -15 10 -49 10 -52 0 -73 -11 -43 -23 7 -3 7 -6 1 -6 -6 -1 -19 8 -29 19 -10
11 -30 20 -44 20 -16 1 -41 16 -66 40 -22 22 -45 40 -51 40 -6 0 -16 10 -23
23 -11 22 -11 22 -6 -3z"/>
<path d="M5606 1521 c-3 -5 1 -11 9 -15 8 -3 15 -15 15 -26 0 -11 5 -20 11
-20 6 0 8 7 5 16 -3 9 -6 24 -6 35 0 19 -24 26 -34 10z"/>
<path d="M5520 1466 c0 -8 6 -16 13 -19 6 -2 9 -8 5 -12 -4 -4 -14 -3 -21 4
-9 7 -23 8 -38 3 -19 -8 -15 -10 30 -16 29 -4 55 -5 58 -2 6 6 -27 56 -38 56
-5 0 -9 -6 -9 -14z"/>
<path d="M5406 1393 c3 -47 4 -48 19 -26 10 14 22 20 33 17 11 -4 8 2 -8 15
-34 28 -46 26 -44 -6z"/>
<path d="M725 1400 c3 -5 -1 -10 -10 -10 -21 0 -29 -24 -15 -49 13 -25 70 -30
70 -6 0 8 5 14 12 13 17 -4 22 30 8 47 -14 17 -75 21 -65 5z"/>
<path d="M5358 1383 c7 -3 16 -2 19 1 4 3 -2 6 -13 5 -11 0 -14 -3 -6 -6z"/>
<path d="M5280 1352 c0 -4 5 -13 12 -20 6 -6 8 -15 3 -19 -4 -5 -10 -2 -12 5
-3 6 -19 12 -36 12 -42 -1 -16 -17 41 -26 46 -7 54 5 28 39 -14 17 -36 23 -36
9z"/>
<path d="M2155 1330 c-38 -5 -89 -6 -112 -3 -48 6 -56 -7 -21 -31 25 -18 64
-21 73 -6 3 6 21 10 39 10 39 0 96 18 96 31 0 5 -1 8 -2 8 -2 -1 -34 -5 -73
-9z"/>
<path d="M1579 1296 c-3 -22 -3 -55 1 -75 5 -31 9 -36 30 -33 33 5 36 9 18 29
-15 19 -34 64 -41 98 -2 12 -5 3 -8 -19z"/>
<path d="M5167 1303 c-9 -14 5 -63 17 -63 8 0 11 11 8 30 -4 31 -17 47 -25 33z"/>
<path d="M926 1247 c7 -44 -5 -61 -74 -109 -24 -17 -41 -32 -39 -34 2 -3 32
14 66 37 68 45 81 72 57 116 l-16 28 6 -38z"/>
<path d="M2725 1243 c-27 -7 -95 -22 -150 -33 -55 -12 -140 -34 -190 -50 -125
-41 -203 -58 -323 -69 -93 -9 -314 -45 -352 -58 -22 -8 74 -48 150 -62 57 -11
227 -15 315 -6 91 8 346 88 438 137 11 5 21 7 24 4 3 -3 14 4 24 15 11 13 25
19 35 15 11 -4 15 -2 11 8 -6 16 36 42 53 31 7 -4 10 -1 8 9 -2 8 12 28 31 44
l35 29 -30 0 c-16 0 -51 -6 -79 -14z"/>
<path d="M879 1234 c-16 -20 -83 -54 -106 -54 -15 0 -16 -2 -3 -10 25 -16 59
-11 103 16 23 15 43 28 45 29 5 4 -10 35 -18 35 -4 0 -13 -7 -21 -16z"/>
<path d="M5070 1245 c0 -2 14 -11 30 -20 17 -9 30 -12 30 -7 0 5 -11 14 -25
20 -28 13 -35 14 -35 7z"/>
<path d="M4982 1199 c2 -6 8 -10 13 -10 5 0 11 4 13 10 2 6 -4 11 -13 11 -9 0
-15 -5 -13 -11z"/>
<path d="M688 1154 c-10 -22 -9 -32 8 -62 19 -36 21 -37 69 -34 49 3 90 22 49
22 -26 0 -36 10 -25 24 12 15 -5 56 -24 56 -8 0 -15 5 -15 10 0 6 -11 10 -25
10 -18 0 -29 -8 -37 -26z m83 -25 c10 -10 15 -19 10 -19 -5 0 -15 -2 -23 -5
-19 -7 -38 8 -43 34 -3 18 -1 21 16 16 12 -4 30 -16 40 -26z"/>
<path d="M4905 1160 c-3 -5 -1 -10 4 -10 6 0 11 5 11 10 0 6 -2 10 -4 10 -3 0
-8 -4 -11 -10z"/>
<path d="M1069 1145 c-3 -2 -30 -11 -60 -19 -46 -13 -49 -15 -21 -15 32 -1
102 22 102 33 0 7 -15 8 -21 1z"/>
<path d="M1518 1123 c6 -2 18 -2 25 0 6 3 1 5 -13 5 -14 0 -19 -2 -12 -5z"/>
<path d="M1463 1113 c9 -2 23 -2 30 0 6 3 -1 5 -18 5 -16 0 -22 -2 -12 -5z"/>
<path d="M170 936 c0 -2 8 -10 18 -17 15 -13 16 -12 3 4 -13 16 -21 21 -21 13z"/>
</g>
</svg>
